<svg width="128" height="128" viewBox="0 0 128 128" fill="none" xmlns="http://www.w3.org/2000/svg">
<path d="M21.821 94.6457C16.3079 94.6457 13 91.5012 13 86.2739C13 84.7629 13.4492 82.5577 14.2251 80.475L27.4158 44.0474C29.9478 36.9008 34.2358 33.6746 41.1374 33.6746C48.5291 33.6746 52.7762 36.7783 55.4307 44.0474L68.7439 80.475C69.5606 82.721 69.8873 84.3546 69.8873 86.2331C69.8873 91.1337 66.2528 94.6457 61.2297 94.6457C56.1249 94.6457 53.4705 92.318 52.0003 86.6007L50.9793 82.5985H31.7855L30.7645 86.3148C29.131 92.2363 26.5174 94.6457 21.821 94.6457ZM35.0525 69.6937H47.3448L41.2191 48.2946H40.8924L35.0525 69.6937Z" fill="#F43B5C"/>
<path d="M92.4773 93.6248C87.8218 93.6248 85.1265 90.7661 85.1265 85.7431V76.7179H76.3871C71.6499 76.7179 68.9546 74.1042 68.9546 69.612C68.9546 65.1199 71.6499 62.5062 76.3871 62.5062H85.1265V53.3994C85.1265 48.4171 87.8626 45.5585 92.4773 45.5585C97.1328 45.5585 99.8281 48.4171 99.8281 53.3994V62.5062H108.527C113.264 62.5062 116 65.1199 116 69.612C116 74.1042 113.223 76.7179 108.445 76.7179H99.8281V85.7839C99.8281 90.7661 97.1328 93.6248 92.4773 93.6248Z" fill="#F43B5C"/>
</svg>
