<svg width="1024" height="1024" viewBox="0 0 1024 1024" fill="none" xmlns="http://www.w3.org/2000/svg">
<g filter="url(#filter0_diii_378_1152)">
<rect x="100" y="100" width="824" height="824" rx="185" fill="#222325"/>
<rect x="100" y="100" width="824" height="824" rx="185" fill="url(#paint0_radial_378_1152)" fill-opacity="0.2"/>
</g>
<g filter="url(#filter1_d_378_1152)">
<mask id="path-2-outside-1_378_1152" maskUnits="userSpaceOnUse" x="248.132" y="247.801" width="533" height="533" fill="black">
<rect fill="white" x="248.132" y="247.801" width="533" height="533"/>
<path fill-rule="evenodd" clip-rule="evenodd" d="M492.308 255.75C499.673 255.121 507.12 254.801 514.634 254.801C522.148 254.801 529.594 255.121 536.959 255.75C553.759 257.183 566.216 271.964 564.782 288.764C563.348 305.564 548.567 318.02 531.767 316.587C526.196 316.111 520.553 315.865 514.847 315.859C514.775 315.86 514.702 315.86 514.63 315.86C488.57 315.86 462.766 320.993 438.69 330.965C414.614 340.938 392.739 355.555 374.312 373.982C355.885 392.408 341.268 414.284 331.295 438.36C321.323 462.436 316.19 488.24 316.19 514.3C316.19 540.359 321.323 566.163 331.295 590.239C341.268 614.315 355.885 636.191 374.312 654.618C392.739 673.044 414.614 687.661 438.69 697.634C461.526 707.093 485.917 712.198 510.606 712.698C511.945 712.725 513.288 712.738 514.634 712.738C520.413 712.738 526.127 712.492 531.767 712.011C548.567 710.577 563.348 723.034 564.782 739.833C566.216 756.633 553.759 771.414 536.959 772.848C529.673 773.47 522.307 773.79 514.875 773.797C514.793 773.797 514.712 773.797 514.63 773.797C512.878 773.797 511.126 773.78 509.376 773.744C503.643 773.63 497.952 773.33 492.308 772.848C491.988 772.82 491.668 772.788 491.351 772.751C465.253 770.401 439.616 764.106 415.324 754.044C383.84 741.003 355.234 721.889 331.137 697.792C307.04 673.696 287.926 645.089 274.885 613.605C261.844 582.121 255.132 548.377 255.132 514.3C255.132 480.222 261.844 446.478 274.885 414.994C287.926 383.51 307.04 354.903 331.137 330.807C355.234 306.71 383.84 287.596 415.324 274.555C439.596 264.501 465.212 258.209 491.288 255.854C491.626 255.813 491.966 255.779 492.308 255.75ZM638.645 319.39C649.503 306.49 668.762 304.836 681.661 315.694C693.068 325.297 703.636 335.864 713.238 347.272C724.097 360.171 722.442 379.43 709.543 390.288C696.644 401.146 677.385 399.491 666.527 386.592C659.172 377.855 651.077 369.761 642.34 362.406C629.441 351.548 627.786 332.289 638.645 319.39ZM740.168 464.151C756.968 462.717 771.749 475.174 773.183 491.973C773.812 499.338 774.132 506.785 774.132 514.299C774.132 521.813 773.812 529.259 773.183 536.624C771.749 553.424 756.968 565.88 740.168 564.447C723.369 563.013 710.912 548.232 712.346 531.432C712.827 525.792 713.073 520.078 713.073 514.299C713.073 508.52 712.827 502.806 712.346 497.165C710.912 480.366 723.369 465.584 740.168 464.151ZM709.543 638.309C722.442 649.168 724.097 668.427 713.238 681.326C703.636 692.733 693.068 703.301 681.661 712.903C668.762 723.761 649.503 722.107 638.645 709.208C627.786 696.309 629.441 677.05 642.34 666.191C651.077 658.837 659.172 650.742 666.527 642.005C677.385 629.106 696.644 627.451 709.543 638.309ZM510.361 392.998C523.961 380.805 544.871 381.944 557.064 395.544L648.652 497.692C660.397 510.791 659.831 530.792 647.365 543.206L555.777 634.41C542.834 647.298 521.893 647.254 509.005 634.311C496.116 621.368 496.16 600.428 509.103 587.539L549.441 547.37H417.955C399.689 547.37 384.882 532.562 384.882 514.297C384.882 496.031 399.689 481.223 417.955 481.223H545.044L507.815 439.702C495.622 426.102 496.761 405.192 510.361 392.998Z"/>
</mask>
<path fill-rule="evenodd" clip-rule="evenodd" d="M492.308 255.75C499.673 255.121 507.12 254.801 514.634 254.801C522.148 254.801 529.594 255.121 536.959 255.75C553.759 257.183 566.216 271.964 564.782 288.764C563.348 305.564 548.567 318.02 531.767 316.587C526.196 316.111 520.553 315.865 514.847 315.859C514.775 315.86 514.702 315.86 514.63 315.86C488.57 315.86 462.766 320.993 438.69 330.965C414.614 340.938 392.739 355.555 374.312 373.982C355.885 392.408 341.268 414.284 331.295 438.36C321.323 462.436 316.19 488.24 316.19 514.3C316.19 540.359 321.323 566.163 331.295 590.239C341.268 614.315 355.885 636.191 374.312 654.618C392.739 673.044 414.614 687.661 438.69 697.634C461.526 707.093 485.917 712.198 510.606 712.698C511.945 712.725 513.288 712.738 514.634 712.738C520.413 712.738 526.127 712.492 531.767 712.011C548.567 710.577 563.348 723.034 564.782 739.833C566.216 756.633 553.759 771.414 536.959 772.848C529.673 773.47 522.307 773.79 514.875 773.797C514.793 773.797 514.712 773.797 514.63 773.797C512.878 773.797 511.126 773.78 509.376 773.744C503.643 773.63 497.952 773.33 492.308 772.848C491.988 772.82 491.668 772.788 491.351 772.751C465.253 770.401 439.616 764.106 415.324 754.044C383.84 741.003 355.234 721.889 331.137 697.792C307.04 673.696 287.926 645.089 274.885 613.605C261.844 582.121 255.132 548.377 255.132 514.3C255.132 480.222 261.844 446.478 274.885 414.994C287.926 383.51 307.04 354.903 331.137 330.807C355.234 306.71 383.84 287.596 415.324 274.555C439.596 264.501 465.212 258.209 491.288 255.854C491.626 255.813 491.966 255.779 492.308 255.75ZM638.645 319.39C649.503 306.49 668.762 304.836 681.661 315.694C693.068 325.297 703.636 335.864 713.238 347.272C724.097 360.171 722.442 379.43 709.543 390.288C696.644 401.146 677.385 399.491 666.527 386.592C659.172 377.855 651.077 369.761 642.34 362.406C629.441 351.548 627.786 332.289 638.645 319.39ZM740.168 464.151C756.968 462.717 771.749 475.174 773.183 491.973C773.812 499.338 774.132 506.785 774.132 514.299C774.132 521.813 773.812 529.259 773.183 536.624C771.749 553.424 756.968 565.88 740.168 564.447C723.369 563.013 710.912 548.232 712.346 531.432C712.827 525.792 713.073 520.078 713.073 514.299C713.073 508.52 712.827 502.806 712.346 497.165C710.912 480.366 723.369 465.584 740.168 464.151ZM709.543 638.309C722.442 649.168 724.097 668.427 713.238 681.326C703.636 692.733 693.068 703.301 681.661 712.903C668.762 723.761 649.503 722.107 638.645 709.208C627.786 696.309 629.441 677.05 642.34 666.191C651.077 658.837 659.172 650.742 666.527 642.005C677.385 629.106 696.644 627.451 709.543 638.309ZM510.361 392.998C523.961 380.805 544.871 381.944 557.064 395.544L648.652 497.692C660.397 510.791 659.831 530.792 647.365 543.206L555.777 634.41C542.834 647.298 521.893 647.254 509.005 634.311C496.116 621.368 496.16 600.428 509.103 587.539L549.441 547.37H417.955C399.689 547.37 384.882 532.562 384.882 514.297C384.882 496.031 399.689 481.223 417.955 481.223H545.044L507.815 439.702C495.622 426.102 496.761 405.192 510.361 392.998Z" fill="url(#paint1_linear_378_1152)"/>
<path d="M492.308 255.75L492.838 261.961L492.838 261.961L492.308 255.75ZM536.959 255.75L537.489 249.538L537.489 249.538L536.959 255.75ZM564.782 288.764L558.571 288.234L558.571 288.234L564.782 288.764ZM531.767 316.587L532.297 310.376L532.297 310.376L531.767 316.587ZM514.847 315.859L514.854 309.626L514.829 309.626L514.804 309.626L514.847 315.859ZM438.69 330.965L436.305 325.206L436.305 325.206L438.69 330.965ZM331.295 438.36L325.536 435.975L325.536 435.975L331.295 438.36ZM331.295 590.239L325.536 592.625L325.536 592.625L331.295 590.239ZM374.312 654.618L378.72 650.21L378.72 650.21L374.312 654.618ZM438.69 697.634L436.305 703.393L436.305 703.393L438.69 697.634ZM510.606 712.698L510.479 718.931L510.482 718.931L510.606 712.698ZM531.767 712.011L531.237 705.8L531.237 705.8L531.767 712.011ZM564.782 739.833L558.571 740.363L558.571 740.363L564.782 739.833ZM536.959 772.848L537.489 779.059L537.489 779.059L536.959 772.848ZM514.875 773.797L514.869 767.563L514.846 767.563L514.824 767.563L514.875 773.797ZM509.376 773.744L509.503 767.512L509.501 767.512L509.376 773.744ZM492.308 772.848L491.778 779.059L491.778 779.059L492.308 772.848ZM491.351 772.751L492.073 766.56L491.992 766.55L491.91 766.543L491.351 772.751ZM415.324 754.044L417.71 748.285L417.71 748.285L415.324 754.044ZM331.137 697.792L326.729 702.2L326.729 702.2L331.137 697.792ZM274.885 613.605L269.126 615.991L274.885 613.605ZM255.132 514.3L248.898 514.3L255.132 514.3ZM274.885 414.994L280.644 417.38L280.644 417.38L274.885 414.994ZM415.324 274.555L412.939 268.796L412.939 268.796L415.324 274.555ZM491.288 255.854L491.849 262.062L491.936 262.054L492.023 262.044L491.288 255.854ZM681.661 315.694L685.675 310.925L685.675 310.925L681.661 315.694ZM713.238 347.272L718.007 343.257L718.007 343.257L713.238 347.272ZM709.543 390.288L705.529 385.519L705.529 385.519L709.543 390.288ZM666.527 386.592L661.758 390.607L661.758 390.607L666.527 386.592ZM642.34 362.406L638.326 367.175L638.326 367.175L642.34 362.406ZM773.183 491.973L779.394 491.443L779.394 491.443L773.183 491.973ZM740.168 464.151L740.698 470.362L740.698 470.362L740.168 464.151ZM773.183 536.624L779.394 537.154L779.394 537.154L773.183 536.624ZM740.168 564.447L740.698 558.236L740.698 558.236L740.168 564.447ZM712.346 531.432L718.557 531.962L718.557 531.962L712.346 531.432ZM712.346 497.165L718.557 496.635L718.557 496.635L712.346 497.165ZM713.238 681.326L708.47 677.311L708.469 677.311L713.238 681.326ZM709.543 638.309L713.557 633.541L713.557 633.541L709.543 638.309ZM681.661 712.903L685.675 717.672L685.675 717.672L681.661 712.903ZM638.645 709.208L633.876 713.222L633.876 713.222L638.645 709.208ZM642.34 666.191L646.355 670.96L646.355 670.96L642.34 666.191ZM666.527 642.005L661.758 637.991L661.758 637.991L666.527 642.005ZM557.064 395.544L552.423 399.705L552.423 399.705L557.064 395.544ZM510.361 392.998L506.2 388.357L506.2 388.357L510.361 392.998ZM648.652 497.692L653.293 493.531L653.293 493.531L648.652 497.692ZM647.365 543.206L642.966 538.789L642.966 538.789L647.365 543.206ZM555.777 634.41L560.176 638.827L560.176 638.827L555.777 634.41ZM509.005 634.311L504.587 638.71L504.587 638.71L509.005 634.311ZM509.103 587.539L513.501 591.956L513.501 591.956L509.103 587.539ZM549.441 547.37L553.839 551.787L564.535 541.136H549.441V547.37ZM545.044 481.223V487.457H559.006L549.686 477.062L545.044 481.223ZM507.815 439.702L512.457 435.54L512.457 435.54L507.815 439.702ZM514.634 248.567C506.943 248.567 499.319 248.895 491.778 249.538L492.838 261.961C500.027 261.347 507.297 261.034 514.634 261.034V248.567ZM537.489 249.538C529.948 248.895 522.325 248.567 514.634 248.567V261.034C521.971 261.034 529.24 261.347 536.429 261.961L537.489 249.538ZM570.993 289.294C572.719 269.064 557.719 251.265 537.489 249.538L536.429 261.961C549.799 263.102 559.712 274.865 558.571 288.234L570.993 289.294ZM531.237 322.798C551.467 324.524 569.266 309.524 570.993 289.294L558.571 288.234C557.43 301.604 545.667 311.517 532.297 310.376L531.237 322.798ZM514.84 322.093C520.372 322.099 525.84 322.337 531.237 322.798L532.297 310.376C526.552 309.885 520.735 309.632 514.854 309.626L514.84 322.093ZM514.63 322.094C514.717 322.094 514.804 322.093 514.89 322.093L514.804 309.626C514.745 309.626 514.688 309.626 514.63 309.626V322.094ZM441.076 336.724C464.395 327.065 489.389 322.094 514.63 322.094V309.626C487.752 309.626 461.137 314.92 436.305 325.206L441.076 336.724ZM378.72 378.389C396.568 360.541 417.756 346.384 441.076 336.724L436.305 325.206C411.473 335.492 388.91 350.568 369.904 369.574L378.72 378.389ZM337.055 440.746C346.714 417.426 360.872 396.237 378.72 378.389L369.904 369.574C350.898 388.579 335.822 411.142 325.536 435.975L337.055 440.746ZM322.424 514.3C322.424 489.059 327.395 464.065 337.055 440.746L325.536 435.975C315.251 460.807 309.957 487.422 309.957 514.3H322.424ZM337.055 587.854C327.395 564.534 322.424 539.54 322.424 514.3H309.957C309.957 541.178 315.251 567.793 325.536 592.625L337.055 587.854ZM378.72 650.21C360.872 632.362 346.714 611.173 337.055 587.854L325.536 592.625C335.822 617.457 350.898 640.02 369.904 659.025L378.72 650.21ZM441.076 691.875C417.756 682.215 396.568 668.058 378.72 650.21L369.904 659.025C388.91 678.031 411.473 693.107 436.305 703.393L441.076 691.875ZM510.732 706.466C486.819 705.981 463.194 701.037 441.076 691.875L436.305 703.393C459.858 713.149 485.015 718.414 510.479 718.931L510.732 706.466ZM514.634 706.505C513.329 706.505 512.027 706.492 510.73 706.466L510.482 718.931C511.862 718.958 513.246 718.972 514.634 718.972V706.505ZM531.237 705.8C525.773 706.266 520.235 706.505 514.634 706.505V718.972C520.59 718.972 526.481 718.718 532.297 718.222L531.237 705.8ZM570.993 739.303C569.266 719.073 551.467 704.073 531.237 705.8L532.297 718.222C545.667 717.081 557.43 726.994 558.571 740.363L570.993 739.303ZM537.489 779.059C557.719 777.332 572.719 759.533 570.993 739.303L558.571 740.363C559.712 753.733 549.799 765.496 536.429 766.637L537.489 779.059ZM514.881 780.03C522.488 780.023 530.029 779.696 537.489 779.059L536.429 766.637C529.317 767.244 522.126 767.556 514.869 767.563L514.881 780.03ZM514.63 780.031C514.727 780.031 514.826 780.031 514.926 780.03L514.824 767.563C514.761 767.564 514.696 767.564 514.63 767.564V780.031ZM509.25 779.977C511.042 780.013 512.836 780.031 514.63 780.031V767.564C512.92 767.564 511.211 767.547 509.503 767.512L509.25 779.977ZM491.778 779.059C497.557 779.552 503.384 779.86 509.252 779.977L509.501 767.512C503.903 767.4 498.347 767.107 492.838 766.637L491.778 779.059ZM490.628 778.943C491.01 778.987 491.393 779.026 491.778 779.059L492.839 766.637C492.582 766.615 492.326 766.589 492.073 766.56L490.628 778.943ZM412.939 759.803C437.814 770.107 464.067 776.553 490.792 778.96L491.91 766.543C466.439 764.249 441.418 758.106 417.71 748.285L412.939 759.803ZM326.729 702.2C351.405 726.876 380.699 746.449 412.939 759.803L417.71 748.285C386.982 735.558 359.063 716.902 335.545 693.385L326.729 702.2ZM269.126 615.991C282.48 648.231 302.054 677.525 326.729 702.2L335.545 693.385C312.027 669.867 293.372 641.947 280.644 611.22L269.126 615.991ZM248.898 514.3C248.898 549.196 255.772 583.751 269.126 615.991L280.644 611.22C267.916 580.492 261.365 547.559 261.365 514.3L248.898 514.3ZM269.126 412.609C255.772 444.849 248.898 479.403 248.898 514.3L261.365 514.3C261.365 481.04 267.916 448.107 280.644 417.38L269.126 412.609ZM326.729 326.399C302.054 351.074 282.48 380.368 269.126 412.609L280.644 417.38C293.372 386.652 312.027 358.732 335.545 335.215L326.729 326.399ZM412.939 268.796C380.699 282.15 351.405 301.724 326.729 326.399L335.545 335.215C359.063 311.697 386.982 293.042 417.71 280.314L412.939 268.796ZM490.727 249.645C464.025 252.057 437.794 258.5 412.939 268.796L417.71 280.314C441.399 270.502 466.399 264.36 491.849 262.062L490.727 249.645ZM491.778 249.538C491.368 249.574 490.96 249.615 490.553 249.663L492.023 262.044C492.293 262.012 492.565 261.984 492.838 261.961L491.778 249.538ZM685.675 310.925C670.142 297.85 646.951 299.842 633.876 315.375L643.414 323.404C652.055 313.139 667.381 311.822 677.647 320.463L685.675 310.925ZM718.007 343.257C708.175 331.577 697.355 320.757 685.675 310.925L677.647 320.463C688.781 329.836 699.096 340.151 708.469 351.286L718.007 343.257ZM713.557 395.057C729.09 381.982 731.083 358.79 718.007 343.257L708.469 351.286C717.111 361.551 715.794 376.878 705.529 385.519L713.557 395.057ZM661.758 390.607C674.833 406.14 698.024 408.132 713.557 395.057L705.529 385.519C695.263 394.16 679.937 392.843 671.295 382.578L661.758 390.607ZM638.326 367.175C646.79 374.3 654.632 382.142 661.758 390.607L671.295 382.578C663.711 373.568 655.364 365.221 646.354 357.637L638.326 367.175ZM633.876 315.375C620.8 330.908 622.793 354.1 638.326 367.175L646.354 357.637C636.089 348.996 634.772 333.669 643.414 323.404L633.876 315.375ZM779.394 491.443C777.667 471.213 759.868 456.213 739.638 457.94L740.698 470.362C754.068 469.221 765.831 479.134 766.972 492.503L779.394 491.443ZM780.365 514.299C780.365 506.608 780.038 498.984 779.394 491.443L766.972 492.503C767.585 499.692 767.898 506.962 767.898 514.299H780.365ZM779.394 537.154C780.038 529.613 780.365 521.99 780.365 514.299H767.898C767.898 521.636 767.585 528.905 766.972 536.094L779.394 537.154ZM739.638 570.658C759.868 572.384 777.667 557.384 779.394 537.154L766.972 536.094C765.831 549.464 754.068 559.377 740.698 558.236L739.638 570.658ZM706.135 530.902C704.408 551.132 719.408 568.931 739.638 570.658L740.698 558.236C727.329 557.095 717.416 545.332 718.557 531.962L706.135 530.902ZM706.84 514.299C706.84 519.9 706.601 525.438 706.135 530.902L718.557 531.962C719.053 526.146 719.307 520.255 719.307 514.299H706.84ZM706.135 497.695C706.601 503.16 706.84 508.697 706.84 514.299H719.307C719.307 508.343 719.053 502.452 718.557 496.635L706.135 497.695ZM739.638 457.94C719.408 459.666 704.408 477.465 706.135 497.695L718.557 496.635C717.416 483.266 727.329 471.503 740.698 470.362L739.638 457.94ZM718.007 685.34C731.083 669.807 729.09 646.616 713.557 633.541L705.529 643.078C715.794 651.719 717.111 667.046 708.47 677.311L718.007 685.34ZM685.675 717.672C697.355 707.84 708.175 697.02 718.007 685.34L708.469 677.311C699.096 688.446 688.781 698.761 677.647 708.134L685.675 717.672ZM633.876 713.222C646.951 728.755 670.142 730.747 685.675 717.672L677.647 708.134C667.381 716.775 652.055 715.459 643.414 705.193L633.876 713.222ZM638.326 661.423C622.793 674.498 620.801 697.689 633.876 713.222L643.414 705.193C634.772 694.928 636.089 679.601 646.355 670.96L638.326 661.423ZM661.758 637.991C654.632 646.455 646.79 654.297 638.326 661.423L646.355 670.96C655.364 663.376 663.711 655.029 671.295 646.019L661.758 637.991ZM713.557 633.541C698.024 620.465 674.833 622.458 661.758 637.991L671.295 646.019C679.937 635.754 695.263 634.437 705.529 643.078L713.557 633.541ZM561.706 391.383C547.214 375.22 522.363 373.865 506.2 388.357L514.523 397.64C525.559 387.744 542.528 388.669 552.423 399.705L561.706 391.383ZM653.293 493.531L561.706 391.383L552.423 399.705L644.011 501.853L653.293 493.531ZM651.763 547.623C666.579 532.869 667.252 509.098 653.293 493.531L644.011 501.853C653.542 512.483 653.083 528.715 642.966 538.789L651.763 547.623ZM560.176 638.827L651.763 547.623L642.966 538.789L551.379 629.993L560.176 638.827ZM504.587 638.71C519.905 654.092 544.793 654.145 560.176 638.827L551.379 629.993C540.875 640.452 523.881 640.416 513.422 629.913L504.587 638.71ZM504.704 583.122C489.322 598.44 489.269 623.327 504.587 638.71L513.422 629.913C502.962 619.409 502.998 602.415 513.501 591.956L504.704 583.122ZM545.042 542.953L504.704 583.122L513.501 591.956L553.839 551.787L545.042 542.953ZM417.955 553.603H549.441V541.136H417.955V553.603ZM378.648 514.297C378.648 536.005 396.247 553.603 417.955 553.603V541.136C403.132 541.136 391.116 529.12 391.116 514.297H378.648ZM417.955 474.99C396.247 474.99 378.648 492.588 378.648 514.297H391.116C391.116 499.473 403.132 487.457 417.955 487.457V474.99ZM545.044 474.99H417.955V487.457H545.044V474.99ZM503.174 443.863L540.403 485.385L549.686 477.062L512.457 435.54L503.174 443.863ZM506.2 388.357C490.037 402.849 488.682 427.7 503.174 443.863L512.457 435.54C502.561 424.504 503.486 407.535 514.523 397.64L506.2 388.357Z" fill="white" mask="url(#path-2-outside-1_378_1152)"/>
</g>
<defs>
<filter id="filter0_diii_378_1152" x="60" y="80" width="904" height="904" filterUnits="userSpaceOnUse" color-interpolation-filters="sRGB">
<feFlood flood-opacity="0" result="BackgroundImageFix"/>
<feColorMatrix in="SourceAlpha" type="matrix" values="0 0 0 0 0 0 0 0 0 0 0 0 0 0 0 0 0 0 127 0" result="hardAlpha"/>
<feOffset dy="20"/>
<feGaussianBlur stdDeviation="20"/>
<feColorMatrix type="matrix" values="0 0 0 0 0 0 0 0 0 0 0 0 0 0 0 0 0 0 0.4 0"/>
<feBlend mode="normal" in2="BackgroundImageFix" result="effect1_dropShadow_378_1152"/>
<feBlend mode="normal" in="SourceGraphic" in2="effect1_dropShadow_378_1152" result="shape"/>
<feColorMatrix in="SourceAlpha" type="matrix" values="0 0 0 0 0 0 0 0 0 0 0 0 0 0 0 0 0 0 127 0" result="hardAlpha"/>
<feOffset/>
<feGaussianBlur stdDeviation="6"/>
<feComposite in2="hardAlpha" operator="arithmetic" k2="-1" k3="1"/>
<feColorMatrix type="matrix" values="0 0 0 0 1 0 0 0 0 1 0 0 0 0 1 0 0 0 0.8 0"/>
<feBlend mode="normal" in2="shape" result="effect2_innerShadow_378_1152"/>
<feColorMatrix in="SourceAlpha" type="matrix" values="0 0 0 0 0 0 0 0 0 0 0 0 0 0 0 0 0 0 127 0" result="hardAlpha"/>
<feOffset dy="-15"/>
<feGaussianBlur stdDeviation="3"/>
<feComposite in2="hardAlpha" operator="arithmetic" k2="-1" k3="1"/>
<feColorMatrix type="matrix" values="0 0 0 0 1 0 0 0 0 1 0 0 0 0 1 0 0 0 0.15 0"/>
<feBlend mode="normal" in2="effect2_innerShadow_378_1152" result="effect3_innerShadow_378_1152"/>
<feColorMatrix in="SourceAlpha" type="matrix" values="0 0 0 0 0 0 0 0 0 0 0 0 0 0 0 0 0 0 127 0" result="hardAlpha"/>
<feOffset dy="-9"/>
<feGaussianBlur stdDeviation="6"/>
<feComposite in2="hardAlpha" operator="arithmetic" k2="-1" k3="1"/>
<feColorMatrix type="matrix" values="0 0 0 0 0 0 0 0 0 0 0 0 0 0 0 0 0 0 1 0"/>
<feBlend mode="normal" in2="effect3_innerShadow_378_1152" result="effect4_innerShadow_378_1152"/>
</filter>
<filter id="filter1_d_378_1152" x="184.254" y="200.083" width="642.286" height="642.284" filterUnits="userSpaceOnUse" color-interpolation-filters="sRGB">
<feFlood flood-opacity="0" result="BackgroundImageFix"/>
<feColorMatrix in="SourceAlpha" type="matrix" values="0 0 0 0 0 0 0 0 0 0 0 0 0 0 0 0 0 0 127 0" result="hardAlpha"/>
<feOffset dx="-9.23496" dy="6.92622"/>
<feGaussianBlur stdDeviation="27.7049"/>
<feComposite in2="hardAlpha" operator="out"/>
<feColorMatrix type="matrix" values="0 0 0 0 0 0 0 0 0 0 0 0 0 0 0 0 0 0 0.08 0"/>
<feBlend mode="normal" in2="BackgroundImageFix" result="effect1_dropShadow_378_1152"/>
<feBlend mode="normal" in="SourceGraphic" in2="effect1_dropShadow_378_1152" result="shape"/>
</filter>
<radialGradient id="paint0_radial_378_1152" cx="0" cy="0" r="1" gradientUnits="userSpaceOnUse" gradientTransform="translate(512 100) rotate(90) scale(329.5)">
<stop stop-color="white"/>
<stop offset="1" stop-color="white" stop-opacity="0"/>
</radialGradient>
<linearGradient id="paint1_linear_378_1152" x1="737.39" y1="181.482" x2="355.146" y2="716.628" gradientUnits="userSpaceOnUse">
<stop stop-color="#FDFEFE"/>
<stop offset="1" stop-color="#ACADAD"/>
</linearGradient>
</defs>
</svg>
