<svg width="128" height="128" viewBox="0 0 128 128" fill="none" xmlns="http://www.w3.org/2000/svg">
<mask id="mask0_1_379" style="mask-type:alpha" maskUnits="userSpaceOnUse" x="26" y="27" width="76" height="75">
<rect x="26.5" y="27" width="75" height="75" rx="37.5" fill="#FFDA17"/>
</mask>
<g mask="url(#mask0_1_379)">
<path fill-rule="evenodd" clip-rule="evenodd" d="M64 102C84.7107 102 101.5 85.2107 101.5 64.5C101.5 43.7893 84.7107 27 64 27L64 102Z" fill="#FFDA17"/>
</g>
<circle cx="64" cy="64" r="50" fill="#434343"/>
<path d="M40.9208 87.5327C38.5746 85.1575 38.6615 81.0154 40.8339 78.8719L55.3748 64.3021L40.8339 49.7902C38.6615 47.6177 38.5746 43.5046 40.9208 41.1294C43.296 38.7542 47.4381 38.8701 49.6106 41.0135L64.1514 55.5254L78.6343 41.0425C80.9226 38.7542 84.9199 38.7832 87.2951 41.1584C89.6703 43.5336 89.6993 47.5308 87.411 49.8191L72.9281 64.3021L87.411 78.8139C89.6993 81.1312 89.6703 85.1285 87.2951 87.5037C84.9199 89.8499 80.9226 89.8789 78.6343 87.5906L64.1514 73.0787L49.6106 87.6196C47.4381 89.792 43.296 89.8789 40.9208 87.5327Z" fill="white"/>
</svg>
