<svg width="128" height="128" viewBox="0 0 128 128" fill="none" xmlns="http://www.w3.org/2000/svg">
<path d="M30.0727 14.0266C33.865 14.0234 37.5361 15.3617 40.4365 17.8048C43.3369 20.2479 45.2796 23.6382 45.9208 27.3759C46.562 31.1135 45.8603 34.9575 43.94 38.2275C42.0196 41.4976 39.0044 43.983 35.4279 45.2438V82.773C39.003 84.0363 42.0163 86.5229 43.9352 89.7932C45.8541 93.0634 46.5551 96.9068 45.9142 100.644C45.2733 104.381 43.3318 107.771 40.4329 110.215C37.5341 112.659 33.8644 114 30.0727 114C26.281 114 22.6114 112.659 19.7125 110.215C16.8137 107.771 14.8722 104.381 14.2313 100.644C13.5904 96.9068 14.2914 93.0634 16.2103 89.7932C18.1292 86.5229 21.1425 84.0363 24.7176 82.773V45.2438C21.1495 43.9756 18.1437 41.4882 16.2304 38.2204C14.317 34.9525 13.6189 31.114 14.2592 27.3818C14.8994 23.6495 16.8369 20.2632 19.73 17.8198C22.6231 15.3765 26.286 14.0332 30.0727 14.0266ZM97.9051 53.298C99.3254 53.298 100.688 53.8622 101.692 54.8665C102.696 55.8708 103.26 57.2329 103.26 58.6532V82.773C106.835 84.0363 109.849 86.5229 111.768 89.7932C113.687 93.0634 114.387 96.9068 113.747 100.644C113.106 104.381 111.164 107.771 108.265 110.215C105.366 112.659 101.697 114 97.9051 114C94.1134 114 90.4438 112.659 87.5449 110.215C84.646 107.771 82.7046 104.381 82.0637 100.644C81.4228 96.9068 82.1238 93.0634 84.0427 89.7932C85.9616 86.5229 88.9749 84.0363 92.5499 82.773V58.6532C92.5499 57.2329 93.1142 55.8708 94.1184 54.8665C95.1227 53.8622 96.4848 53.298 97.9051 53.298ZM83.4104 15.6475C84.4145 14.6446 85.7756 14.0813 87.1948 14.0813C88.6139 14.0813 89.975 14.6446 90.9791 15.6475L97.9051 22.5735L104.831 15.6475C105.49 14.9594 106.321 14.46 107.237 14.2011C108.154 13.9421 109.124 13.9331 110.045 14.175C110.966 14.4168 111.806 14.9006 112.478 15.5764C113.149 16.2521 113.628 17.0951 113.864 18.018C114.103 18.9375 114.094 19.9042 113.837 20.8189C113.58 21.7337 113.084 22.5635 112.4 23.2233L105.474 30.1493L112.4 37.0753C113.345 38.0911 113.86 39.4339 113.836 40.8213C113.812 42.2088 113.251 43.533 112.271 44.5155C111.289 45.4954 109.965 46.0563 108.577 46.0803C107.19 46.1043 105.847 45.5894 104.831 44.644L97.9051 37.718L90.9791 44.644C90.3245 45.3489 89.492 45.8643 88.5691 46.1357C87.6462 46.4071 86.6672 46.4246 85.7353 46.1863C84.8033 45.948 83.9528 45.4628 83.2735 44.7817C82.5942 44.1006 82.1111 43.2489 81.8753 42.3163C81.6367 41.3854 81.6533 40.4074 81.9235 39.4851C82.1936 38.5628 82.7073 37.7304 83.4104 37.0753L90.3365 30.1493L83.4104 23.2233C82.4076 22.2192 81.8443 20.8581 81.8443 19.4389C81.8443 18.0198 82.4076 16.6587 83.4104 15.6546V15.6475ZM24.7176 30.0922C24.7176 31.5125 25.2818 32.8746 26.286 33.8789C27.2903 34.8832 28.6525 35.4474 30.0727 35.4474C31.493 35.4474 32.8551 34.8832 33.8594 33.8789C34.8637 32.8746 35.4279 31.5125 35.4279 30.0922C35.4279 28.6719 34.8637 27.3098 33.8594 26.3055C32.8551 25.3012 31.493 24.737 30.0727 24.737C28.6525 24.737 27.2903 25.3012 26.286 26.3055C25.2818 27.3098 24.7176 28.6719 24.7176 30.0922ZM30.0727 92.5694C28.6525 92.5694 27.2903 93.1336 26.286 94.1379C25.2818 95.1422 24.7176 96.5043 24.7176 97.9246C24.7176 99.3449 25.2818 100.707 26.286 101.711C27.2903 102.716 28.6525 103.28 30.0727 103.28C31.493 103.28 32.8551 102.716 33.8594 101.711C34.8637 100.707 35.4279 99.3449 35.4279 97.9246C35.4279 96.5043 34.8637 95.1422 33.8594 94.1379C32.8551 93.1336 31.493 92.5694 30.0727 92.5694ZM97.9051 92.5694C96.4848 92.5694 95.1227 93.1336 94.1184 94.1379C93.1142 95.1422 92.5499 96.5043 92.5499 97.9246C92.5499 99.3449 93.1142 100.707 94.1184 101.711C95.1227 102.716 96.4848 103.28 97.9051 103.28C99.3254 103.28 100.688 102.716 101.692 101.711C102.696 100.707 103.26 99.3449 103.26 97.9246C103.26 96.5043 102.696 95.1422 101.692 94.1379C100.688 93.1336 99.3254 92.5694 97.9051 92.5694Z" fill="#FF3232"/>
</svg>
