<svg width="128" height="128" viewBox="0 0 128 128" fill="none" xmlns="http://www.w3.org/2000/svg">
<path d="M30.077 14C33.8703 13.9968 37.5424 15.3354 40.4436 17.7792C43.3447 20.2229 45.2879 23.6142 45.9293 27.3528C46.5706 31.0914 45.8688 34.9364 43.9479 38.2074C42.0271 41.4783 39.0111 43.9643 35.4336 45.2255V82.7647C39.0096 84.0283 42.0237 86.5156 43.9432 89.7867C45.8626 93.0579 46.5637 96.9023 45.9227 100.64C45.2816 104.379 43.3396 107.77 40.44 110.214C37.5403 112.659 33.8697 114 30.077 114C26.2843 114 22.6137 112.659 19.7141 110.214C16.8144 107.77 14.8724 104.379 14.2314 100.64C13.5903 96.9023 14.2914 93.0579 16.2109 89.7867C18.1303 86.5156 21.1444 84.0283 24.7204 82.7647V45.2255C21.1514 43.9569 18.1448 41.4689 16.231 38.2002C14.3171 34.9315 13.6188 31.092 14.2593 27.3587C14.8997 23.6255 16.8377 20.2382 19.7315 17.7942C22.6254 15.3503 26.2892 14.0065 30.077 14ZM97.9275 113.99C93.6655 113.99 89.578 112.297 86.5644 109.283C83.5507 106.27 81.8576 102.182 81.8576 97.9203C81.8576 93.6583 83.5507 89.5709 86.5644 86.5572C89.578 83.5435 93.6655 81.8505 97.9275 81.8505C102.189 81.8505 106.277 83.5435 109.291 86.5572C112.304 89.5709 113.997 93.6583 113.997 97.9203C113.997 102.182 112.304 106.27 109.291 109.283C106.277 112.297 102.189 113.99 97.9275 113.99ZM24.7204 30.0698C24.7204 31.4905 25.2848 32.853 26.2893 33.8575C27.2939 34.8621 28.6564 35.4265 30.077 35.4265C31.4977 35.4265 32.8602 34.8621 33.8647 33.8575C34.8693 32.853 35.4336 31.4905 35.4336 30.0698C35.4336 28.6492 34.8693 27.2867 33.8647 26.2821C32.8602 25.2776 31.4977 24.7132 30.077 24.7132C28.6564 24.7132 27.2939 25.2776 26.2893 26.2821C25.2848 27.2867 24.7204 28.6492 24.7204 30.0698ZM30.077 92.5637C28.6564 92.5637 27.2939 93.128 26.2893 94.1326C25.2848 95.1372 24.7204 96.4996 24.7204 97.9203C24.7204 99.341 25.2848 100.703 26.2893 101.708C27.2939 102.713 28.6564 103.277 30.077 103.277C31.4977 103.277 32.8602 102.713 33.8647 101.708C34.8693 100.703 35.4336 99.341 35.4336 97.9203C35.4336 96.4996 34.8693 95.1372 33.8647 94.1326C32.8602 93.128 31.4977 92.5637 30.077 92.5637ZM97.9275 92.5637C96.5068 92.5637 95.1443 93.128 94.1398 94.1326C93.1352 95.1372 92.5708 96.4996 92.5708 97.9203C92.5708 99.341 93.1352 100.703 94.1398 101.708C95.1443 102.713 96.5068 103.277 97.9275 103.277C99.3481 103.277 100.711 102.713 101.715 101.708C102.72 100.703 103.284 99.341 103.284 97.9203C103.284 96.4996 102.72 95.1372 101.715 94.1326C100.711 93.128 99.3481 92.5637 97.9275 92.5637ZM106.855 60.424C106.855 62.7918 105.915 65.0626 104.24 66.7368C102.566 68.4111 100.295 69.3517 97.9275 69.3517C95.5597 69.3517 93.2889 68.4111 91.6146 66.7368C89.9404 65.0626 88.9998 62.7918 88.9998 60.424C88.9998 58.0562 89.9404 55.7854 91.6146 54.1112C93.2889 52.4369 95.5597 51.4963 97.9275 51.4963C100.295 51.4963 102.566 52.4369 104.24 54.1112C105.915 55.7854 106.855 58.0562 106.855 60.424ZM106.855 30.0698C106.855 32.4376 105.915 34.7084 104.24 36.3827C102.566 38.0569 100.295 38.9975 97.9275 38.9975C95.5597 38.9975 93.2889 38.0569 91.6146 36.3827C89.9404 34.7084 88.9998 32.4376 88.9998 30.0698C88.9998 27.7021 89.9404 25.4313 91.6146 23.757C93.2889 22.0828 95.5597 21.1422 97.9275 21.1422C100.295 21.1422 102.566 22.0828 104.24 23.757C105.915 25.4313 106.855 27.7021 106.855 30.0698Z" fill="#6B6D70"/>
</svg>
