<svg width="128" height="128" viewBox="0 0 128 128" fill="none" xmlns="http://www.w3.org/2000/svg">
<path fill-rule="evenodd" clip-rule="evenodd" d="M59.6122 13.1865C61.0597 13.0629 62.5231 13 63.9999 13C65.4767 13 66.9401 13.0629 68.3876 13.1865C71.6893 13.4682 74.1374 16.3732 73.8557 19.6749C73.5739 22.9766 70.6689 25.4248 67.3672 25.143C66.2586 25.0484 65.1356 25 63.9999 25C62.8642 25 61.7412 25.0484 60.6326 25.143C57.3309 25.4248 54.4259 22.9766 54.1441 19.6749C53.8624 16.3732 56.3105 13.4682 59.6122 13.1865ZM88.3722 25.6939C90.5061 23.1588 94.2912 22.8336 96.8263 24.9676C99.0683 26.8548 101.145 28.9316 103.032 31.1736C105.166 33.7087 104.841 37.4937 102.306 39.6277C99.7709 41.7617 95.9859 41.4365 93.8519 38.9014C92.4065 37.1843 90.8156 35.5934 89.0985 34.148C86.5634 32.014 86.2382 28.229 88.3722 25.6939ZM108.325 54.1442C111.627 53.8625 114.532 56.3106 114.813 59.6123C114.937 61.0598 115 62.5232 115 64C115 65.4767 114.937 66.9402 114.813 68.3877C114.532 71.6894 111.627 74.1375 108.325 73.8557C105.023 73.574 102.575 70.669 102.857 67.3673C102.952 66.2587 103 65.1357 103 64C103 62.8643 102.952 61.7412 102.857 60.6327C102.575 57.331 105.023 54.426 108.325 54.1442ZM102.306 88.3723C104.841 90.5062 105.166 94.2913 103.032 96.8264C101.145 99.0684 99.0683 101.145 96.8263 103.032C94.2912 105.166 90.5062 104.841 88.3722 102.306C86.2382 99.771 86.5634 95.986 89.0985 93.852C90.8156 92.4066 92.4065 90.8157 93.8519 89.0985C95.9859 86.5634 99.7709 86.2383 102.306 88.3723ZM54.1441 108.325C54.4259 105.023 57.3309 102.575 60.6326 102.857C61.7412 102.952 62.8642 103 63.9999 103C65.1356 103 66.2586 102.952 67.3672 102.857C70.6689 102.575 73.5739 105.023 73.8557 108.325C74.1374 111.627 71.6893 114.532 68.3876 114.814C66.9401 114.937 65.4767 115 63.9999 115C62.5231 115 61.0597 114.937 59.6122 114.814C56.3105 114.532 53.8624 111.627 54.1441 108.325Z" fill="#22D662"/>
<path fill-rule="evenodd" clip-rule="evenodd" d="M16.8821 83.5169C14.3192 77.3293 13 70.6974 13 64C13 57.3026 14.3192 50.6708 16.8821 44.4832C19.4451 38.2955 23.2018 32.6733 27.9376 27.9376C32.6733 23.2018 38.2955 19.4451 44.4831 16.8821C50.6707 14.3192 57.3026 13 64 13C67.3137 13 70 15.6863 70 19C70 22.3137 67.3137 25 64 25C58.8784 25 53.807 26.0088 49.0753 27.9687C44.3436 29.9286 40.0443 32.8014 36.4228 36.4228C32.8014 40.0443 29.9286 44.3437 27.9687 49.0753C26.0088 53.807 25 58.8785 25 64C25 69.1216 26.0088 74.193 27.9687 78.9247C29.9286 83.6564 32.8014 87.9557 36.4228 91.5772C40.0443 95.1987 44.3437 98.0714 49.0753 100.031C53.807 101.991 58.8784 103 64 103C67.3137 103 70 105.686 70 109C70 112.314 67.3137 115 64 115C57.3026 115 50.6708 113.681 44.4831 111.118C38.2955 108.555 32.6733 104.798 27.9376 100.062C23.2018 95.3267 19.4451 89.7045 16.8821 83.5169Z" fill="#22D662"/>
<path fill-rule="evenodd" clip-rule="evenodd" d="M38.5 64C38.5 60.4101 41.4101 57.5 45 57.5H75C78.5899 57.5 81.5 60.4101 81.5 64C81.5 67.5899 78.5899 70.5 75 70.5H45C41.4101 70.5 38.5 67.5899 38.5 64Z" fill="#22D662"/>
<path fill-rule="evenodd" clip-rule="evenodd" d="M63.1608 40.1604C65.8337 37.7639 69.9431 37.9879 72.3396 40.6607L90.3396 60.7362C92.6478 63.3106 92.5367 67.2415 90.0866 69.6812L72.0866 87.6058C69.5429 90.1388 65.4273 90.1302 62.8942 87.5865C60.3612 85.0427 60.3698 80.9272 62.9135 78.3941L76.5427 64.822L62.6605 49.3392C60.264 46.6663 60.488 42.5569 63.1608 40.1604Z" fill="#22D662"/>
</svg>
