<svg width="128" height="128" viewBox="0 0 128 128" fill="none" xmlns="http://www.w3.org/2000/svg">
<path d="M44.2202 96.8614C39.0308 96.8614 36.0264 93.6731 36.0264 88.071V78.0054H26.2848C21.0044 78.0054 18 75.0904 18 70.0804C18 65.0703 21.0044 62.1554 26.2848 62.1554H36.0264V51.9987C36.0264 46.4421 39.0763 43.2539 44.2202 43.2539C49.4096 43.2539 52.414 46.4421 52.414 51.9987V62.1554H62.11C67.3904 62.1554 70.4404 65.0703 70.4404 70.0804C70.4404 75.0904 67.3449 78.0054 62.0189 78.0054H52.414V88.1165C52.414 93.6731 49.4096 96.8614 44.2202 96.8614Z" fill="#9F9F9F"/>
<path d="M95.3495 98C89.5683 98 85.699 94.2652 85.699 88.4809V47.6718H85.3349L78.3701 52.4997C76.7314 53.6383 75.6844 54.0027 73.8635 54.0027C70.2674 54.0027 67.4906 51.3155 67.4906 47.4896C67.4906 44.8024 68.5831 42.6162 71.1323 40.8855L83.0588 32.9149C86.8826 30.3644 90.2056 30 93.9384 30C100.903 30 105 34.1902 105 40.7944V88.4809C105 94.2652 101.131 98 95.3495 98Z" fill="#9F9F9F"/>
</svg>
