<svg width="128" height="128" viewBox="0 0 128 128" fill="none" xmlns="http://www.w3.org/2000/svg">
<path d="M17.007 32.3809C17.0078 29.5161 17.7962 26.7066 19.2858 24.2596C20.7755 21.8126 22.9091 19.8221 25.4536 18.5057C27.998 17.1894 30.8554 16.5977 33.7133 16.7955C36.5713 16.9933 39.3199 17.9729 41.6587 19.6273C43.9976 21.2816 45.8367 23.547 46.975 26.176C48.1133 28.8049 48.5071 31.6961 48.1133 34.5337C47.7196 37.3713 46.5533 40.0461 44.7421 42.2657C42.9309 44.4853 40.5444 46.1643 37.8435 47.1192V83.6247C41.321 84.8536 44.2521 87.2723 46.1187 90.4534C47.9853 93.6345 48.6671 97.3731 48.0437 101.008C47.4203 104.643 45.5318 107.941 42.7119 110.319C39.8921 112.696 36.3226 114 32.6343 114C28.9461 114 25.3765 112.696 22.5567 110.319C19.7369 107.941 17.8484 104.643 17.225 101.008C16.6016 97.3731 17.2834 93.6345 19.15 90.4534C21.0166 87.2723 23.9477 84.8536 27.4252 83.6247V47.1192C24.3776 46.0417 21.7391 44.0457 19.8733 41.4061C18.0074 38.7666 17.006 35.6133 17.007 32.3809ZM56.4365 31.1515L73.0779 14.5101C73.3208 14.2667 73.6304 14.1008 73.9677 14.0335C74.3049 13.9663 74.6545 14.0007 74.9722 14.1323C75.2899 14.264 75.5613 14.4871 75.752 14.7732C75.9428 15.0593 76.0443 15.3956 76.0437 15.7395V27.1718H82.9892C87.5943 27.1718 92.0108 29.0011 95.2672 32.2575C98.5235 35.5138 100.353 39.9303 100.353 44.5355V83.6247C103.83 84.8536 106.762 87.2723 108.628 90.4534C110.495 93.6345 111.177 97.3731 110.553 101.008C109.93 104.643 108.041 107.941 105.221 110.319C102.402 112.696 98.832 114 95.1438 114C91.4555 114 87.886 112.696 85.0662 110.319C82.2463 107.941 80.3578 104.643 79.7344 101.008C79.111 97.3731 79.7928 93.6345 81.6594 90.4534C83.526 87.2723 86.4571 84.8536 89.9346 83.6247V44.5355C89.9346 42.6934 89.2029 40.9268 87.9004 39.6243C86.5978 38.3218 84.8312 37.59 82.9892 37.59H76.0437V49.0223C76.0443 49.3661 75.9428 49.7025 75.752 49.9886C75.5613 50.2747 75.2899 50.4977 74.9722 50.6294C74.6545 50.7611 74.3049 50.7955 73.9677 50.7282C73.6304 50.661 73.3208 50.4951 73.0779 50.2516L56.4365 33.6102C56.2748 33.4489 56.1465 33.2573 56.059 33.0464C55.9715 32.8354 55.9264 32.6093 55.9264 32.3809C55.9264 32.1525 55.9715 31.9263 56.059 31.7154C56.1465 31.5044 56.2748 31.3128 56.4365 31.1515ZM32.6343 27.1718C31.2528 27.1718 29.9278 27.7206 28.9509 28.6975C27.974 29.6744 27.4252 30.9993 27.4252 32.3809C27.4252 33.7624 27.974 35.0874 28.9509 36.0643C29.9278 37.0412 31.2528 37.59 32.6343 37.59C34.0159 37.59 35.3408 37.0412 36.3177 36.0643C37.2946 35.0874 37.8435 33.7624 37.8435 32.3809C37.8435 30.9993 37.2946 29.6744 36.3177 28.6975C35.3408 27.7206 34.0159 27.1718 32.6343 27.1718ZM32.6343 93.1539C31.2528 93.1539 29.9278 93.7027 28.9509 94.6796C27.974 95.6565 27.4252 96.9815 27.4252 98.363C27.4252 99.7446 27.974 101.07 28.9509 102.046C29.9278 103.023 31.2528 103.572 32.6343 103.572C34.0159 103.572 35.3408 103.023 36.3177 102.046C37.2946 101.07 37.8435 99.7446 37.8435 98.363C37.8435 96.9815 37.2946 95.6565 36.3177 94.6796C35.3408 93.7027 34.0159 93.1539 32.6343 93.1539ZM89.9346 98.363C89.9346 99.7446 90.4835 101.07 91.4604 102.046C92.4373 103.023 93.7622 103.572 95.1438 103.572C96.5253 103.572 97.8503 103.023 98.8272 102.046C99.8041 101.07 100.353 99.7446 100.353 98.363C100.353 96.9815 99.8041 95.6565 98.8272 94.6796C97.8503 93.7027 96.5253 93.1539 95.1438 93.1539C93.7622 93.1539 92.4373 93.7027 91.4604 94.6796C90.4835 95.6565 89.9346 96.9815 89.9346 98.363Z" fill="#27DD55"/>
</svg>
