<svg width="128" height="128" viewBox="0 0 128 128" fill="none" xmlns="http://www.w3.org/2000/svg">
<path d="M42.6453 43.6694C45.1694 48.7065 49.0453 52.9419 53.8394 55.9016C58.6336 58.8614 64.1567 60.4287 69.7908 60.4282H79.6346C80.8986 56.8515 83.3863 53.8368 86.6581 51.917C89.9299 49.9972 93.775 49.2959 97.5139 49.9371C101.253 50.5783 104.645 52.5206 107.09 55.4209C109.535 58.3211 110.876 61.9924 110.876 65.7859C110.876 69.5793 109.535 73.2506 107.09 76.1509C104.645 79.0511 101.253 80.9935 97.5139 81.6346C93.775 82.2758 89.9299 81.5745 86.6581 79.6547C83.3863 77.7349 80.8986 74.7202 79.6346 71.1435H69.7908C64.0748 71.1506 58.4206 69.9612 53.1919 67.652C47.9631 65.3427 43.2756 61.9647 39.4307 57.7351V82.7732C43.0054 84.0371 46.0182 86.524 47.9367 89.7943C49.8552 93.0647 50.5557 96.908 49.9146 100.645C49.2734 104.382 47.3318 107.772 44.4329 110.216C41.5341 112.66 37.8646 114 34.073 114C30.2815 114 26.612 112.66 23.7131 110.216C20.8143 107.772 18.8727 104.382 18.2315 100.645C17.5903 96.908 18.2909 93.0647 20.2094 89.7943C22.1278 86.524 25.1407 84.0371 28.7154 82.7732V45.2267C25.2855 44.014 22.3685 41.6736 20.4412 38.5882C18.5139 35.5027 17.6903 31.8547 18.1051 28.2405C18.5199 24.6263 20.1484 21.2597 22.7246 18.6911C25.3008 16.1224 28.6721 14.5037 32.2875 14.0995C35.9029 13.6954 39.5485 14.5296 42.6283 16.4659C45.7081 18.4023 48.0399 21.3261 49.2426 24.7595C50.4452 28.1929 50.4476 31.9327 49.2492 35.3676C48.0508 38.8025 45.7227 41.7292 42.6453 43.6694ZM34.073 103.29C35.494 103.29 36.8567 102.725 37.8615 101.72C38.8662 100.716 39.4307 99.3528 39.4307 97.9319C39.4307 96.5109 38.8662 95.1482 37.8615 94.1434C36.8567 93.1387 35.494 92.5742 34.073 92.5742C32.6521 92.5742 31.2893 93.1387 30.2846 94.1434C29.2798 95.1482 28.7154 96.5109 28.7154 97.9319C28.7154 99.3528 29.2798 100.716 30.2846 101.72C31.2893 102.725 32.6521 103.29 34.073 103.29ZM94.7933 71.1435C96.2142 71.1435 97.5769 70.5791 98.5817 69.5743C99.5865 68.5695 100.151 67.2068 100.151 65.7859C100.151 64.3649 99.5865 63.0022 98.5817 61.9974C97.5769 60.9927 96.2142 60.4282 94.7933 60.4282C93.3723 60.4282 92.0096 60.9927 91.0048 61.9974C90.0001 63.0022 89.4356 64.3649 89.4356 65.7859C89.4356 67.2068 90.0001 68.5695 91.0048 69.5743C92.0096 70.5791 93.3723 71.1435 94.7933 71.1435ZM39.4307 30.0681C39.426 28.6487 38.8582 27.2892 37.852 26.288C36.8459 25.2869 35.4835 24.7259 34.0641 24.7283C32.6447 24.7306 31.2843 25.2962 30.2815 26.3007C29.2786 27.3052 28.7154 28.6665 28.7154 30.0859C28.7154 31.5053 29.2786 32.8667 30.2815 33.8712C31.2843 34.8757 32.6447 35.4412 34.0641 35.4436C35.4835 35.446 36.8459 34.885 37.852 33.8838C38.8582 32.8827 39.426 31.5232 39.4307 30.1038V30.0681Z" fill="#A565F8"/>
</svg>
